# xmcd
#
# Track frame offsets:
#	150
#	12859
#	30437
#	47095
#	63792
#	79592
#	99282
#	118537
#	135197
#	150082
#	172092
#	191290
#	211787
#	229850
#	248045
#	264020
#	279172
#
# Disc length: 3954 seconds
#
# Revision: 0
# Processed by: cddbd v1.5.1PL2 Copyright (c) Steve Scherf et al.
# Submitted via: dBpowerAMP V4.0
#
DISCID=bb0f7011
DTITLE=3¯|Ê±j - ?@￥Iμμ·R 1979-1992 Disk 2
DYEAR=2000
DGENRE=Pop
TTITLE0=??¯q?s
TTITLE1=|ó￥2cê?è
TTITLE2=¯??o|aao?@￥I
TTITLE3=oK?P
TTITLE4=μe￥X±m-i
TTITLE5=2`·RμU§A
TTITLE6=?s±aao?t￥÷
TTITLE7=AÊ·r1w§i
TTITLE8=?￡|A°Y¨s3o
TTITLE9=§N-·??
TTITLE10=§UcM§A
TTITLE11=·í§U·Q°_§A
TTITLE12=°﹐13
TTITLE13=±H?￡￥Xao?H
TTITLE14=|A¨￡Josephine
TTITLE15=·o?s2’?oAA
TTITLE16=?R±a
EXTD=Danny Chan
EXTT0=
EXTT1=
EXTT2=
EXTT3=
EXTT4=
EXTT5=
EXTT6=
EXTT7=
EXTT8=
EXTT9=
EXTT10=
EXTT11=
EXTT12=
EXTT13=
EXTT14=
EXTT15=
EXTT16=
PLAYORDER=
